<svg xmlns="http://www.w3.org/2000/svg" viewBox="0 0 1000 900" width="1000" height="900" font-family="Helvetica, Arial, sans-serif">
<rect width="1000" height="900" fill="#ffffff"/>
<text x="24" y="34" text-anchor="start" font-size="18" font-weight="bold" fill="#111">Saleae で UART ログを読む — プローブ 2 本の挿し場所</text>
<text x="24" y="56" text-anchor="start" font-size="12" fill="#666">C4 の治具（左＝セントラル）はそのまま。電池もテスターも外さない。挿すのは 2 本だけ。</text>
<rect x="102" y="138" width="756" height="290" rx="9" fill="#f7f8f9" stroke="#ccd2d8" stroke-width="2"/>
<rect x="102" y="274" width="756" height="20" fill="#e6eaee"/>
<circle cx="132" cy="166" r="4" fill="none" stroke="#bcc3ca" stroke-width="1.2"/>
<circle cx="132" cy="190" r="4" fill="none" stroke="#bcc3ca" stroke-width="1.2"/>
<circle cx="132" cy="214" r="4" fill="none" stroke="#bcc3ca" stroke-width="1.2"/>
<circle cx="132" cy="238" r="4" fill="none" stroke="#bcc3ca" stroke-width="1.2"/>
<circle cx="132" cy="262" r="4" fill="none" stroke="#bcc3ca" stroke-width="1.2"/>
<circle cx="132" cy="306" r="4" fill="none" stroke="#bcc3ca" stroke-width="1.2"/>
<circle cx="132" cy="330" r="4" fill="none" stroke="#bcc3ca" stroke-width="1.2"/>
<circle cx="132" cy="354" r="4" fill="none" stroke="#bcc3ca" stroke-width="1.2"/>
<circle cx="132" cy="378" r="4" fill="none" stroke="#bcc3ca" stroke-width="1.2"/>
<circle cx="132" cy="402" r="4" fill="none" stroke="#bcc3ca" stroke-width="1.2"/>
<circle cx="156" cy="166" r="4" fill="none" stroke="#bcc3ca" stroke-width="1.2"/>
<circle cx="156" cy="190" r="4" fill="none" stroke="#bcc3ca" stroke-width="1.2"/>
<circle cx="156" cy="214" r="4" fill="none" stroke="#bcc3ca" stroke-width="1.2"/>
<circle cx="156" cy="238" r="4" fill="none" stroke="#bcc3ca" stroke-width="1.2"/>
<circle cx="156" cy="262" r="4" fill="none" stroke="#bcc3ca" stroke-width="1.2"/>
<circle cx="156" cy="306" r="4" fill="none" stroke="#bcc3ca" stroke-width="1.2"/>
<circle cx="156" cy="330" r="4" fill="none" stroke="#bcc3ca" stroke-width="1.2"/>
<circle cx="156" cy="354" r="4" fill="none" stroke="#bcc3ca" stroke-width="1.2"/>
<circle cx="156" cy="378" r="4" fill="none" stroke="#bcc3ca" stroke-width="1.2"/>
<circle cx="156" cy="402" r="4" fill="none" stroke="#bcc3ca" stroke-width="1.2"/>
<circle cx="180" cy="166" r="4" fill="none" stroke="#bcc3ca" stroke-width="1.2"/>
<circle cx="180" cy="190" r="4" fill="none" stroke="#bcc3ca" stroke-width="1.2"/>
<circle cx="180" cy="214" r="4" fill="none" stroke="#bcc3ca" stroke-width="1.2"/>
<circle cx="180" cy="238" r="4" fill="none" stroke="#bcc3ca" stroke-width="1.2"/>
<circle cx="180" cy="262" r="4" fill="none" stroke="#bcc3ca" stroke-width="1.2"/>
<circle cx="180" cy="306" r="4" fill="none" stroke="#bcc3ca" stroke-width="1.2"/>
<circle cx="180" cy="330" r="4" fill="none" stroke="#bcc3ca" stroke-width="1.2"/>
<circle cx="180" cy="354" r="4" fill="none" stroke="#bcc3ca" stroke-width="1.2"/>
<circle cx="180" cy="378" r="4" fill="none" stroke="#bcc3ca" stroke-width="1.2"/>
<circle cx="180" cy="402" r="4" fill="none" stroke="#bcc3ca" stroke-width="1.2"/>
<circle cx="204" cy="166" r="4" fill="none" stroke="#bcc3ca" stroke-width="1.2"/>
<circle cx="204" cy="190" r="4" fill="none" stroke="#bcc3ca" stroke-width="1.2"/>
<circle cx="204" cy="214" r="4" fill="none" stroke="#bcc3ca" stroke-width="1.2"/>
<circle cx="204" cy="238" r="4" fill="none" stroke="#bcc3ca" stroke-width="1.2"/>
<circle cx="204" cy="262" r="4" fill="none" stroke="#bcc3ca" stroke-width="1.2"/>
<circle cx="204" cy="306" r="4" fill="none" stroke="#bcc3ca" stroke-width="1.2"/>
<circle cx="204" cy="330" r="4" fill="none" stroke="#bcc3ca" stroke-width="1.2"/>
<circle cx="204" cy="354" r="4" fill="none" stroke="#bcc3ca" stroke-width="1.2"/>
<circle cx="204" cy="378" r="4" fill="none" stroke="#bcc3ca" stroke-width="1.2"/>
<circle cx="204" cy="402" r="4" fill="none" stroke="#bcc3ca" stroke-width="1.2"/>
<circle cx="228" cy="166" r="4" fill="none" stroke="#bcc3ca" stroke-width="1.2"/>
<circle cx="228" cy="190" r="4" fill="none" stroke="#bcc3ca" stroke-width="1.2"/>
<circle cx="228" cy="214" r="4" fill="none" stroke="#bcc3ca" stroke-width="1.2"/>
<circle cx="228" cy="238" r="4" fill="none" stroke="#bcc3ca" stroke-width="1.2"/>
<circle cx="228" cy="262" r="4" fill="none" stroke="#bcc3ca" stroke-width="1.2"/>
<circle cx="228" cy="306" r="4" fill="none" stroke="#bcc3ca" stroke-width="1.2"/>
<circle cx="228" cy="330" r="4" fill="none" stroke="#bcc3ca" stroke-width="1.2"/>
<circle cx="228" cy="354" r="4" fill="none" stroke="#bcc3ca" stroke-width="1.2"/>
<circle cx="228" cy="378" r="4" fill="none" stroke="#bcc3ca" stroke-width="1.2"/>
<circle cx="228" cy="402" r="4" fill="none" stroke="#bcc3ca" stroke-width="1.2"/>
<circle cx="252" cy="166" r="4" fill="none" stroke="#bcc3ca" stroke-width="1.2"/>
<circle cx="252" cy="190" r="4" fill="none" stroke="#bcc3ca" stroke-width="1.2"/>
<circle cx="252" cy="214" r="4" fill="none" stroke="#bcc3ca" stroke-width="1.2"/>
<circle cx="252" cy="238" r="4" fill="none" stroke="#bcc3ca" stroke-width="1.2"/>
<circle cx="252" cy="262" r="4" fill="none" stroke="#bcc3ca" stroke-width="1.2"/>
<circle cx="252" cy="306" r="4" fill="none" stroke="#bcc3ca" stroke-width="1.2"/>
<circle cx="252" cy="330" r="4" fill="none" stroke="#bcc3ca" stroke-width="1.2"/>
<circle cx="252" cy="354" r="4" fill="none" stroke="#bcc3ca" stroke-width="1.2"/>
<circle cx="252" cy="378" r="4" fill="none" stroke="#bcc3ca" stroke-width="1.2"/>
<circle cx="252" cy="402" r="4" fill="none" stroke="#bcc3ca" stroke-width="1.2"/>
<circle cx="276" cy="166" r="4" fill="none" stroke="#bcc3ca" stroke-width="1.2"/>
<circle cx="276" cy="190" r="4" fill="none" stroke="#bcc3ca" stroke-width="1.2"/>
<circle cx="276" cy="214" r="4" fill="none" stroke="#bcc3ca" stroke-width="1.2"/>
<circle cx="276" cy="238" r="4" fill="none" stroke="#bcc3ca" stroke-width="1.2"/>
<circle cx="276" cy="262" r="4" fill="none" stroke="#bcc3ca" stroke-width="1.2"/>
<circle cx="276" cy="306" r="4" fill="none" stroke="#bcc3ca" stroke-width="1.2"/>
<circle cx="276" cy="330" r="4" fill="none" stroke="#bcc3ca" stroke-width="1.2"/>
<circle cx="276" cy="354" r="4" fill="none" stroke="#bcc3ca" stroke-width="1.2"/>
<circle cx="276" cy="378" r="4" fill="none" stroke="#bcc3ca" stroke-width="1.2"/>
<circle cx="276" cy="402" r="4" fill="none" stroke="#bcc3ca" stroke-width="1.2"/>
<circle cx="300" cy="166" r="4" fill="none" stroke="#bcc3ca" stroke-width="1.2"/>
<circle cx="300" cy="190" r="4" fill="none" stroke="#bcc3ca" stroke-width="1.2"/>
<circle cx="300" cy="214" r="4" fill="none" stroke="#bcc3ca" stroke-width="1.2"/>
<circle cx="300" cy="238" r="4" fill="none" stroke="#bcc3ca" stroke-width="1.2"/>
<circle cx="300" cy="262" r="4" fill="none" stroke="#bcc3ca" stroke-width="1.2"/>
<circle cx="300" cy="306" r="4" fill="none" stroke="#bcc3ca" stroke-width="1.2"/>
<circle cx="300" cy="330" r="4" fill="none" stroke="#bcc3ca" stroke-width="1.2"/>
<circle cx="300" cy="354" r="4" fill="none" stroke="#bcc3ca" stroke-width="1.2"/>
<circle cx="300" cy="378" r="4" fill="none" stroke="#bcc3ca" stroke-width="1.2"/>
<circle cx="300" cy="402" r="4" fill="none" stroke="#bcc3ca" stroke-width="1.2"/>
<circle cx="324" cy="166" r="4" fill="none" stroke="#bcc3ca" stroke-width="1.2"/>
<circle cx="324" cy="190" r="4" fill="none" stroke="#bcc3ca" stroke-width="1.2"/>
<circle cx="324" cy="214" r="4" fill="none" stroke="#bcc3ca" stroke-width="1.2"/>
<circle cx="324" cy="238" r="4" fill="none" stroke="#bcc3ca" stroke-width="1.2"/>
<circle cx="324" cy="262" r="4" fill="none" stroke="#bcc3ca" stroke-width="1.2"/>
<circle cx="324" cy="306" r="4" fill="none" stroke="#bcc3ca" stroke-width="1.2"/>
<circle cx="324" cy="330" r="4" fill="none" stroke="#bcc3ca" stroke-width="1.2"/>
<circle cx="324" cy="354" r="4" fill="none" stroke="#bcc3ca" stroke-width="1.2"/>
<circle cx="324" cy="378" r="4" fill="none" stroke="#bcc3ca" stroke-width="1.2"/>
<circle cx="324" cy="402" r="4" fill="none" stroke="#bcc3ca" stroke-width="1.2"/>
<circle cx="348" cy="166" r="4" fill="none" stroke="#bcc3ca" stroke-width="1.2"/>
<circle cx="348" cy="190" r="4" fill="none" stroke="#bcc3ca" stroke-width="1.2"/>
<circle cx="348" cy="214" r="4" fill="none" stroke="#bcc3ca" stroke-width="1.2"/>
<circle cx="348" cy="238" r="4" fill="none" stroke="#bcc3ca" stroke-width="1.2"/>
<circle cx="348" cy="262" r="4" fill="none" stroke="#bcc3ca" stroke-width="1.2"/>
<circle cx="348" cy="306" r="4" fill="none" stroke="#bcc3ca" stroke-width="1.2"/>
<circle cx="348" cy="330" r="4" fill="none" stroke="#bcc3ca" stroke-width="1.2"/>
<circle cx="348" cy="354" r="4" fill="none" stroke="#bcc3ca" stroke-width="1.2"/>
<circle cx="348" cy="378" r="4" fill="none" stroke="#bcc3ca" stroke-width="1.2"/>
<circle cx="348" cy="402" r="4" fill="none" stroke="#bcc3ca" stroke-width="1.2"/>
<circle cx="372" cy="166" r="4" fill="none" stroke="#bcc3ca" stroke-width="1.2"/>
<circle cx="372" cy="190" r="4" fill="none" stroke="#bcc3ca" stroke-width="1.2"/>
<circle cx="372" cy="214" r="4" fill="none" stroke="#bcc3ca" stroke-width="1.2"/>
<circle cx="372" cy="238" r="4" fill="none" stroke="#bcc3ca" stroke-width="1.2"/>
<circle cx="372" cy="262" r="4" fill="none" stroke="#bcc3ca" stroke-width="1.2"/>
<circle cx="372" cy="306" r="4" fill="none" stroke="#bcc3ca" stroke-width="1.2"/>
<circle cx="372" cy="330" r="4" fill="none" stroke="#bcc3ca" stroke-width="1.2"/>
<circle cx="372" cy="354" r="4" fill="none" stroke="#bcc3ca" stroke-width="1.2"/>
<circle cx="372" cy="378" r="4" fill="none" stroke="#bcc3ca" stroke-width="1.2"/>
<circle cx="372" cy="402" r="4" fill="none" stroke="#bcc3ca" stroke-width="1.2"/>
<circle cx="396" cy="166" r="4" fill="none" stroke="#bcc3ca" stroke-width="1.2"/>
<circle cx="396" cy="190" r="4" fill="none" stroke="#bcc3ca" stroke-width="1.2"/>
<circle cx="396" cy="214" r="4" fill="none" stroke="#bcc3ca" stroke-width="1.2"/>
<circle cx="396" cy="238" r="4" fill="none" stroke="#bcc3ca" stroke-width="1.2"/>
<circle cx="396" cy="262" r="4" fill="none" stroke="#bcc3ca" stroke-width="1.2"/>
<circle cx="396" cy="306" r="4" fill="none" stroke="#bcc3ca" stroke-width="1.2"/>
<circle cx="396" cy="330" r="4" fill="none" stroke="#bcc3ca" stroke-width="1.2"/>
<circle cx="396" cy="354" r="4" fill="none" stroke="#bcc3ca" stroke-width="1.2"/>
<circle cx="396" cy="378" r="4" fill="none" stroke="#bcc3ca" stroke-width="1.2"/>
<circle cx="396" cy="402" r="4" fill="none" stroke="#bcc3ca" stroke-width="1.2"/>
<circle cx="420" cy="166" r="4" fill="none" stroke="#bcc3ca" stroke-width="1.2"/>
<circle cx="420" cy="190" r="4" fill="none" stroke="#bcc3ca" stroke-width="1.2"/>
<circle cx="420" cy="214" r="4" fill="none" stroke="#bcc3ca" stroke-width="1.2"/>
<circle cx="420" cy="238" r="4" fill="none" stroke="#bcc3ca" stroke-width="1.2"/>
<circle cx="420" cy="262" r="4" fill="none" stroke="#bcc3ca" stroke-width="1.2"/>
<circle cx="420" cy="306" r="4" fill="none" stroke="#bcc3ca" stroke-width="1.2"/>
<circle cx="420" cy="330" r="4" fill="none" stroke="#bcc3ca" stroke-width="1.2"/>
<circle cx="420" cy="354" r="4" fill="none" stroke="#bcc3ca" stroke-width="1.2"/>
<circle cx="420" cy="378" r="4" fill="none" stroke="#bcc3ca" stroke-width="1.2"/>
<circle cx="420" cy="402" r="4" fill="none" stroke="#bcc3ca" stroke-width="1.2"/>
<circle cx="444" cy="166" r="4" fill="none" stroke="#bcc3ca" stroke-width="1.2"/>
<circle cx="444" cy="190" r="4" fill="none" stroke="#bcc3ca" stroke-width="1.2"/>
<circle cx="444" cy="214" r="4" fill="none" stroke="#bcc3ca" stroke-width="1.2"/>
<circle cx="444" cy="238" r="4" fill="none" stroke="#bcc3ca" stroke-width="1.2"/>
<circle cx="444" cy="262" r="4" fill="none" stroke="#bcc3ca" stroke-width="1.2"/>
<circle cx="444" cy="306" r="4" fill="none" stroke="#bcc3ca" stroke-width="1.2"/>
<circle cx="444" cy="330" r="4" fill="none" stroke="#bcc3ca" stroke-width="1.2"/>
<circle cx="444" cy="354" r="4" fill="none" stroke="#bcc3ca" stroke-width="1.2"/>
<circle cx="444" cy="378" r="4" fill="none" stroke="#bcc3ca" stroke-width="1.2"/>
<circle cx="444" cy="402" r="4" fill="none" stroke="#bcc3ca" stroke-width="1.2"/>
<circle cx="468" cy="166" r="4" fill="none" stroke="#bcc3ca" stroke-width="1.2"/>
<circle cx="468" cy="190" r="4" fill="none" stroke="#bcc3ca" stroke-width="1.2"/>
<circle cx="468" cy="214" r="4" fill="none" stroke="#bcc3ca" stroke-width="1.2"/>
<circle cx="468" cy="238" r="4" fill="none" stroke="#bcc3ca" stroke-width="1.2"/>
<circle cx="468" cy="262" r="4" fill="none" stroke="#bcc3ca" stroke-width="1.2"/>
<circle cx="468" cy="306" r="4" fill="none" stroke="#bcc3ca" stroke-width="1.2"/>
<circle cx="468" cy="330" r="4" fill="none" stroke="#bcc3ca" stroke-width="1.2"/>
<circle cx="468" cy="354" r="4" fill="none" stroke="#bcc3ca" stroke-width="1.2"/>
<circle cx="468" cy="378" r="4" fill="none" stroke="#bcc3ca" stroke-width="1.2"/>
<circle cx="468" cy="402" r="4" fill="none" stroke="#bcc3ca" stroke-width="1.2"/>
<circle cx="492" cy="166" r="4" fill="none" stroke="#bcc3ca" stroke-width="1.2"/>
<circle cx="492" cy="190" r="4" fill="none" stroke="#bcc3ca" stroke-width="1.2"/>
<circle cx="492" cy="214" r="4" fill="none" stroke="#bcc3ca" stroke-width="1.2"/>
<circle cx="492" cy="238" r="4" fill="none" stroke="#bcc3ca" stroke-width="1.2"/>
<circle cx="492" cy="262" r="4" fill="none" stroke="#bcc3ca" stroke-width="1.2"/>
<circle cx="492" cy="306" r="4" fill="none" stroke="#bcc3ca" stroke-width="1.2"/>
<circle cx="492" cy="330" r="4" fill="none" stroke="#bcc3ca" stroke-width="1.2"/>
<circle cx="492" cy="354" r="4" fill="none" stroke="#bcc3ca" stroke-width="1.2"/>
<circle cx="492" cy="378" r="4" fill="none" stroke="#bcc3ca" stroke-width="1.2"/>
<circle cx="492" cy="402" r="4" fill="none" stroke="#bcc3ca" stroke-width="1.2"/>
<circle cx="516" cy="166" r="4" fill="none" stroke="#bcc3ca" stroke-width="1.2"/>
<circle cx="516" cy="190" r="4" fill="none" stroke="#bcc3ca" stroke-width="1.2"/>
<circle cx="516" cy="214" r="4" fill="none" stroke="#bcc3ca" stroke-width="1.2"/>
<circle cx="516" cy="238" r="4" fill="none" stroke="#bcc3ca" stroke-width="1.2"/>
<circle cx="516" cy="262" r="4" fill="none" stroke="#bcc3ca" stroke-width="1.2"/>
<circle cx="516" cy="306" r="4" fill="none" stroke="#bcc3ca" stroke-width="1.2"/>
<circle cx="516" cy="330" r="4" fill="none" stroke="#bcc3ca" stroke-width="1.2"/>
<circle cx="516" cy="354" r="4" fill="none" stroke="#bcc3ca" stroke-width="1.2"/>
<circle cx="516" cy="378" r="4" fill="none" stroke="#bcc3ca" stroke-width="1.2"/>
<circle cx="516" cy="402" r="4" fill="none" stroke="#bcc3ca" stroke-width="1.2"/>
<circle cx="540" cy="166" r="4" fill="none" stroke="#bcc3ca" stroke-width="1.2"/>
<circle cx="540" cy="190" r="4" fill="none" stroke="#bcc3ca" stroke-width="1.2"/>
<circle cx="540" cy="214" r="4" fill="none" stroke="#bcc3ca" stroke-width="1.2"/>
<circle cx="540" cy="238" r="4" fill="none" stroke="#bcc3ca" stroke-width="1.2"/>
<circle cx="540" cy="262" r="4" fill="none" stroke="#bcc3ca" stroke-width="1.2"/>
<circle cx="540" cy="306" r="4" fill="none" stroke="#bcc3ca" stroke-width="1.2"/>
<circle cx="540" cy="330" r="4" fill="none" stroke="#bcc3ca" stroke-width="1.2"/>
<circle cx="540" cy="354" r="4" fill="none" stroke="#bcc3ca" stroke-width="1.2"/>
<circle cx="540" cy="378" r="4" fill="none" stroke="#bcc3ca" stroke-width="1.2"/>
<circle cx="540" cy="402" r="4" fill="none" stroke="#bcc3ca" stroke-width="1.2"/>
<circle cx="564" cy="166" r="4" fill="none" stroke="#bcc3ca" stroke-width="1.2"/>
<circle cx="564" cy="190" r="4" fill="none" stroke="#bcc3ca" stroke-width="1.2"/>
<circle cx="564" cy="214" r="4" fill="none" stroke="#bcc3ca" stroke-width="1.2"/>
<circle cx="564" cy="238" r="4" fill="none" stroke="#bcc3ca" stroke-width="1.2"/>
<circle cx="564" cy="262" r="4" fill="none" stroke="#bcc3ca" stroke-width="1.2"/>
<circle cx="564" cy="306" r="4" fill="none" stroke="#bcc3ca" stroke-width="1.2"/>
<circle cx="564" cy="330" r="4" fill="none" stroke="#bcc3ca" stroke-width="1.2"/>
<circle cx="564" cy="354" r="4" fill="none" stroke="#bcc3ca" stroke-width="1.2"/>
<circle cx="564" cy="378" r="4" fill="none" stroke="#bcc3ca" stroke-width="1.2"/>
<circle cx="564" cy="402" r="4" fill="none" stroke="#bcc3ca" stroke-width="1.2"/>
<circle cx="588" cy="166" r="4" fill="none" stroke="#bcc3ca" stroke-width="1.2"/>
<circle cx="588" cy="190" r="4" fill="none" stroke="#bcc3ca" stroke-width="1.2"/>
<circle cx="588" cy="214" r="4" fill="none" stroke="#bcc3ca" stroke-width="1.2"/>
<circle cx="588" cy="238" r="4" fill="none" stroke="#bcc3ca" stroke-width="1.2"/>
<circle cx="588" cy="262" r="4" fill="none" stroke="#bcc3ca" stroke-width="1.2"/>
<circle cx="588" cy="306" r="4" fill="none" stroke="#bcc3ca" stroke-width="1.2"/>
<circle cx="588" cy="330" r="4" fill="none" stroke="#bcc3ca" stroke-width="1.2"/>
<circle cx="588" cy="354" r="4" fill="none" stroke="#bcc3ca" stroke-width="1.2"/>
<circle cx="588" cy="378" r="4" fill="none" stroke="#bcc3ca" stroke-width="1.2"/>
<circle cx="588" cy="402" r="4" fill="none" stroke="#bcc3ca" stroke-width="1.2"/>
<circle cx="612" cy="166" r="4" fill="none" stroke="#bcc3ca" stroke-width="1.2"/>
<circle cx="612" cy="190" r="4" fill="none" stroke="#bcc3ca" stroke-width="1.2"/>
<circle cx="612" cy="214" r="4" fill="none" stroke="#bcc3ca" stroke-width="1.2"/>
<circle cx="612" cy="238" r="4" fill="none" stroke="#bcc3ca" stroke-width="1.2"/>
<circle cx="612" cy="262" r="4" fill="none" stroke="#bcc3ca" stroke-width="1.2"/>
<circle cx="612" cy="306" r="4" fill="none" stroke="#bcc3ca" stroke-width="1.2"/>
<circle cx="612" cy="330" r="4" fill="none" stroke="#bcc3ca" stroke-width="1.2"/>
<circle cx="612" cy="354" r="4" fill="none" stroke="#bcc3ca" stroke-width="1.2"/>
<circle cx="612" cy="378" r="4" fill="none" stroke="#bcc3ca" stroke-width="1.2"/>
<circle cx="612" cy="402" r="4" fill="none" stroke="#bcc3ca" stroke-width="1.2"/>
<circle cx="636" cy="166" r="4" fill="none" stroke="#bcc3ca" stroke-width="1.2"/>
<circle cx="636" cy="190" r="4" fill="none" stroke="#bcc3ca" stroke-width="1.2"/>
<circle cx="636" cy="214" r="4" fill="none" stroke="#bcc3ca" stroke-width="1.2"/>
<circle cx="636" cy="238" r="4" fill="none" stroke="#bcc3ca" stroke-width="1.2"/>
<circle cx="636" cy="262" r="4" fill="none" stroke="#bcc3ca" stroke-width="1.2"/>
<circle cx="636" cy="306" r="4" fill="none" stroke="#bcc3ca" stroke-width="1.2"/>
<circle cx="636" cy="330" r="4" fill="none" stroke="#bcc3ca" stroke-width="1.2"/>
<circle cx="636" cy="354" r="4" fill="none" stroke="#bcc3ca" stroke-width="1.2"/>
<circle cx="636" cy="378" r="4" fill="none" stroke="#bcc3ca" stroke-width="1.2"/>
<circle cx="636" cy="402" r="4" fill="none" stroke="#bcc3ca" stroke-width="1.2"/>
<circle cx="660" cy="166" r="4" fill="none" stroke="#bcc3ca" stroke-width="1.2"/>
<circle cx="660" cy="190" r="4" fill="none" stroke="#bcc3ca" stroke-width="1.2"/>
<circle cx="660" cy="214" r="4" fill="none" stroke="#bcc3ca" stroke-width="1.2"/>
<circle cx="660" cy="238" r="4" fill="none" stroke="#bcc3ca" stroke-width="1.2"/>
<circle cx="660" cy="262" r="4" fill="none" stroke="#bcc3ca" stroke-width="1.2"/>
<circle cx="660" cy="306" r="4" fill="none" stroke="#bcc3ca" stroke-width="1.2"/>
<circle cx="660" cy="330" r="4" fill="none" stroke="#bcc3ca" stroke-width="1.2"/>
<circle cx="660" cy="354" r="4" fill="none" stroke="#bcc3ca" stroke-width="1.2"/>
<circle cx="660" cy="378" r="4" fill="none" stroke="#bcc3ca" stroke-width="1.2"/>
<circle cx="660" cy="402" r="4" fill="none" stroke="#bcc3ca" stroke-width="1.2"/>
<circle cx="684" cy="166" r="4" fill="none" stroke="#bcc3ca" stroke-width="1.2"/>
<circle cx="684" cy="190" r="4" fill="none" stroke="#bcc3ca" stroke-width="1.2"/>
<circle cx="684" cy="214" r="4" fill="none" stroke="#bcc3ca" stroke-width="1.2"/>
<circle cx="684" cy="238" r="4" fill="none" stroke="#bcc3ca" stroke-width="1.2"/>
<circle cx="684" cy="262" r="4" fill="none" stroke="#bcc3ca" stroke-width="1.2"/>
<circle cx="684" cy="306" r="4" fill="none" stroke="#bcc3ca" stroke-width="1.2"/>
<circle cx="684" cy="330" r="4" fill="none" stroke="#bcc3ca" stroke-width="1.2"/>
<circle cx="684" cy="354" r="4" fill="none" stroke="#bcc3ca" stroke-width="1.2"/>
<circle cx="684" cy="378" r="4" fill="none" stroke="#bcc3ca" stroke-width="1.2"/>
<circle cx="684" cy="402" r="4" fill="none" stroke="#bcc3ca" stroke-width="1.2"/>
<circle cx="708" cy="166" r="4" fill="none" stroke="#bcc3ca" stroke-width="1.2"/>
<circle cx="708" cy="190" r="4" fill="none" stroke="#bcc3ca" stroke-width="1.2"/>
<circle cx="708" cy="214" r="4" fill="none" stroke="#bcc3ca" stroke-width="1.2"/>
<circle cx="708" cy="238" r="4" fill="none" stroke="#bcc3ca" stroke-width="1.2"/>
<circle cx="708" cy="262" r="4" fill="none" stroke="#bcc3ca" stroke-width="1.2"/>
<circle cx="708" cy="306" r="4" fill="none" stroke="#bcc3ca" stroke-width="1.2"/>
<circle cx="708" cy="330" r="4" fill="none" stroke="#bcc3ca" stroke-width="1.2"/>
<circle cx="708" cy="354" r="4" fill="none" stroke="#bcc3ca" stroke-width="1.2"/>
<circle cx="708" cy="378" r="4" fill="none" stroke="#bcc3ca" stroke-width="1.2"/>
<circle cx="708" cy="402" r="4" fill="none" stroke="#bcc3ca" stroke-width="1.2"/>
<circle cx="732" cy="166" r="4" fill="none" stroke="#bcc3ca" stroke-width="1.2"/>
<circle cx="732" cy="190" r="4" fill="none" stroke="#bcc3ca" stroke-width="1.2"/>
<circle cx="732" cy="214" r="4" fill="none" stroke="#bcc3ca" stroke-width="1.2"/>
<circle cx="732" cy="238" r="4" fill="none" stroke="#bcc3ca" stroke-width="1.2"/>
<circle cx="732" cy="262" r="4" fill="none" stroke="#bcc3ca" stroke-width="1.2"/>
<circle cx="732" cy="306" r="4" fill="none" stroke="#bcc3ca" stroke-width="1.2"/>
<circle cx="732" cy="330" r="4" fill="none" stroke="#bcc3ca" stroke-width="1.2"/>
<circle cx="732" cy="354" r="4" fill="none" stroke="#bcc3ca" stroke-width="1.2"/>
<circle cx="732" cy="378" r="4" fill="none" stroke="#bcc3ca" stroke-width="1.2"/>
<circle cx="732" cy="402" r="4" fill="none" stroke="#bcc3ca" stroke-width="1.2"/>
<circle cx="756" cy="166" r="4" fill="none" stroke="#bcc3ca" stroke-width="1.2"/>
<circle cx="756" cy="190" r="4" fill="none" stroke="#bcc3ca" stroke-width="1.2"/>
<circle cx="756" cy="214" r="4" fill="none" stroke="#bcc3ca" stroke-width="1.2"/>
<circle cx="756" cy="238" r="4" fill="none" stroke="#bcc3ca" stroke-width="1.2"/>
<circle cx="756" cy="262" r="4" fill="none" stroke="#bcc3ca" stroke-width="1.2"/>
<circle cx="756" cy="306" r="4" fill="none" stroke="#bcc3ca" stroke-width="1.2"/>
<circle cx="756" cy="330" r="4" fill="none" stroke="#bcc3ca" stroke-width="1.2"/>
<circle cx="756" cy="354" r="4" fill="none" stroke="#bcc3ca" stroke-width="1.2"/>
<circle cx="756" cy="378" r="4" fill="none" stroke="#bcc3ca" stroke-width="1.2"/>
<circle cx="756" cy="402" r="4" fill="none" stroke="#bcc3ca" stroke-width="1.2"/>
<circle cx="780" cy="166" r="4" fill="none" stroke="#bcc3ca" stroke-width="1.2"/>
<circle cx="780" cy="190" r="4" fill="none" stroke="#bcc3ca" stroke-width="1.2"/>
<circle cx="780" cy="214" r="4" fill="none" stroke="#bcc3ca" stroke-width="1.2"/>
<circle cx="780" cy="238" r="4" fill="none" stroke="#bcc3ca" stroke-width="1.2"/>
<circle cx="780" cy="262" r="4" fill="none" stroke="#bcc3ca" stroke-width="1.2"/>
<circle cx="780" cy="306" r="4" fill="none" stroke="#bcc3ca" stroke-width="1.2"/>
<circle cx="780" cy="330" r="4" fill="none" stroke="#bcc3ca" stroke-width="1.2"/>
<circle cx="780" cy="354" r="4" fill="none" stroke="#bcc3ca" stroke-width="1.2"/>
<circle cx="780" cy="378" r="4" fill="none" stroke="#bcc3ca" stroke-width="1.2"/>
<circle cx="780" cy="402" r="4" fill="none" stroke="#bcc3ca" stroke-width="1.2"/>
<circle cx="804" cy="166" r="4" fill="none" stroke="#bcc3ca" stroke-width="1.2"/>
<circle cx="804" cy="190" r="4" fill="none" stroke="#bcc3ca" stroke-width="1.2"/>
<circle cx="804" cy="214" r="4" fill="none" stroke="#bcc3ca" stroke-width="1.2"/>
<circle cx="804" cy="238" r="4" fill="none" stroke="#bcc3ca" stroke-width="1.2"/>
<circle cx="804" cy="262" r="4" fill="none" stroke="#bcc3ca" stroke-width="1.2"/>
<circle cx="804" cy="306" r="4" fill="none" stroke="#bcc3ca" stroke-width="1.2"/>
<circle cx="804" cy="330" r="4" fill="none" stroke="#bcc3ca" stroke-width="1.2"/>
<circle cx="804" cy="354" r="4" fill="none" stroke="#bcc3ca" stroke-width="1.2"/>
<circle cx="804" cy="378" r="4" fill="none" stroke="#bcc3ca" stroke-width="1.2"/>
<circle cx="804" cy="402" r="4" fill="none" stroke="#bcc3ca" stroke-width="1.2"/>
<circle cx="828" cy="166" r="4" fill="none" stroke="#bcc3ca" stroke-width="1.2"/>
<circle cx="828" cy="190" r="4" fill="none" stroke="#bcc3ca" stroke-width="1.2"/>
<circle cx="828" cy="214" r="4" fill="none" stroke="#bcc3ca" stroke-width="1.2"/>
<circle cx="828" cy="238" r="4" fill="none" stroke="#bcc3ca" stroke-width="1.2"/>
<circle cx="828" cy="262" r="4" fill="none" stroke="#bcc3ca" stroke-width="1.2"/>
<circle cx="828" cy="306" r="4" fill="none" stroke="#bcc3ca" stroke-width="1.2"/>
<circle cx="828" cy="330" r="4" fill="none" stroke="#bcc3ca" stroke-width="1.2"/>
<circle cx="828" cy="354" r="4" fill="none" stroke="#bcc3ca" stroke-width="1.2"/>
<circle cx="828" cy="378" r="4" fill="none" stroke="#bcc3ca" stroke-width="1.2"/>
<circle cx="828" cy="402" r="4" fill="none" stroke="#bcc3ca" stroke-width="1.2"/>
<text x="132" y="128" text-anchor="middle" font-size="10.5" fill="#8c959d">1</text>
<text x="156" y="128" text-anchor="middle" font-size="10.5" fill="#8c959d">2</text>
<text x="180" y="128" text-anchor="middle" font-size="10.5" fill="#8c959d">3</text>
<text x="228" y="128" text-anchor="middle" font-size="10.5" fill="#8c959d">5</text>
<text x="276" y="128" text-anchor="middle" font-size="10.5" fill="#8c959d">7</text>
<text x="348" y="128" text-anchor="middle" font-size="10.5" fill="#8c959d">10</text>
<text x="444" y="128" text-anchor="middle" font-size="10.5" fill="#8c959d">14</text>
<text x="516" y="128" text-anchor="middle" font-size="10.5" fill="#8c959d">17</text>
<text x="588" y="128" text-anchor="middle" font-size="10.5" fill="#8c959d">20</text>
<text x="708" y="128" text-anchor="middle" font-size="10.5" fill="#8c959d">25</text>
<text x="804" y="128" text-anchor="middle" font-size="10.5" fill="#8c959d">29</text>
<text x="88" y="170" text-anchor="middle" font-size="11" fill="#8c959d">j</text>
<text x="88" y="194" text-anchor="middle" font-size="11" fill="#8c959d">i</text>
<text x="88" y="218" text-anchor="middle" font-size="11" fill="#8c959d">h</text>
<text x="88" y="242" text-anchor="middle" font-size="11" fill="#8c959d">g</text>
<text x="88" y="266" text-anchor="middle" font-size="11" fill="#8c959d">f</text>
<text x="88" y="310" text-anchor="middle" font-size="11" fill="#8c959d">e</text>
<text x="88" y="334" text-anchor="middle" font-size="11" fill="#8c959d">d</text>
<text x="88" y="358" text-anchor="middle" font-size="11" fill="#8c959d">c</text>
<text x="88" y="382" text-anchor="middle" font-size="11" fill="#8c959d">b</text>
<text x="88" y="406" text-anchor="middle" font-size="11" fill="#8c959d">a</text>
<line x1="804" y1="354" x2="756" y2="354" stroke="#dfe4e8" stroke-width="2.4"/>
<line x1="756" y1="330" x2="684" y2="306" stroke="#dfe4e8" stroke-width="2.4"/>
<line x1="684" y1="402" x2="660" y2="402" stroke="#dfe4e8" stroke-width="2.4"/>
<line x1="660" y1="306" x2="588" y2="306" stroke="#dfe4e8" stroke-width="2.4"/>
<line x1="588" y1="330" x2="444" y2="330" stroke="#dfe4e8" stroke-width="2.4"/>
<line x1="588" y1="354" x2="516" y2="354" stroke="#dfe4e8" stroke-width="2.4"/>
<line x1="516" y1="378" x2="396" y2="378" stroke="#dfe4e8" stroke-width="2.4"/>
<line x1="444" y1="354" x2="396" y2="354" stroke="#dfe4e8" stroke-width="2.4"/>
<line x1="444" y1="306" x2="180" y2="166" stroke="#dfe4e8" stroke-width="2.4"/>
<line x1="396" y1="306" x2="156" y2="166" stroke="#dfe4e8" stroke-width="2.4"/>
<line x1="516" y1="306" x2="132" y2="378" stroke="#dfe4e8" stroke-width="2.4"/>
<line x1="804" y1="330" x2="756" y2="306" stroke="#dfe4e8" stroke-width="2.4"/>
<rect x="118" y="225" width="172" height="94" rx="6" fill="#1f2933" stroke="#0d1216" stroke-width="2"/>
<rect x="92" y="256.0" width="28" height="32" rx="3" fill="#b8bcc2" stroke="#8a8f96" stroke-width="1.5"/>
<text x="106" y="277.0" text-anchor="middle" font-size="8.5" font-weight="bold" fill="#3c4147">USB</text>
<text x="204" y="268.0" text-anchor="middle" font-size="13" fill="#c9d3dc">XIAO</text>
<text x="204" y="285.0" text-anchor="middle" font-size="10" fill="#8b97a3">左（セントラル）</text>
<circle cx="132" cy="214" r="5" fill="#c9a227"/>
<text x="132" y="201" text-anchor="middle" font-size="9" font-weight="bold" fill="#7d838a">5V</text>
<circle cx="156" cy="214" r="5" fill="#c9a227"/>
<text x="156" y="201" text-anchor="middle" font-size="10" font-weight="bold" fill="#333">GND</text>
<circle cx="180" cy="214" r="5" fill="#c9a227"/>
<text x="180" y="201" text-anchor="middle" font-size="9" font-weight="bold" fill="#7d838a">3V3</text>
<circle cx="204" cy="214" r="5" fill="#c9a227"/>
<text x="204" y="201" text-anchor="middle" font-size="9" font-weight="bold" fill="#7d838a">D10</text>
<circle cx="228" cy="214" r="5" fill="#c9a227"/>
<text x="228" y="201" text-anchor="middle" font-size="9" font-weight="bold" fill="#7d838a">D9</text>
<circle cx="252" cy="214" r="5" fill="#c9a227"/>
<text x="252" y="201" text-anchor="middle" font-size="9" font-weight="bold" fill="#7d838a">D8</text>
<circle cx="276" cy="214" r="5" fill="#c9a227"/>
<text x="276" y="201" text-anchor="middle" font-size="9" font-weight="bold" fill="#7d838a">D7</text>
<circle cx="132" cy="330" r="5" fill="#c9a227"/>
<text x="132" y="350" text-anchor="middle" font-size="9" font-weight="bold" fill="#7d838a">D0</text>
<circle cx="156" cy="330" r="5" fill="#c9a227"/>
<text x="156" y="350" text-anchor="middle" font-size="9" font-weight="bold" fill="#7d838a">D1</text>
<circle cx="180" cy="330" r="5" fill="#c9a227"/>
<text x="180" y="350" text-anchor="middle" font-size="9" font-weight="bold" fill="#7d838a">D2</text>
<circle cx="204" cy="330" r="5" fill="#c9a227"/>
<text x="204" y="350" text-anchor="middle" font-size="9" font-weight="bold" fill="#7d838a">D3</text>
<circle cx="228" cy="330" r="5" fill="#c9a227"/>
<text x="228" y="350" text-anchor="middle" font-size="9" font-weight="bold" fill="#7d838a">D4</text>
<circle cx="252" cy="330" r="5" fill="#c9a227"/>
<text x="252" y="350" text-anchor="middle" font-size="9" font-weight="bold" fill="#7d838a">D5</text>
<circle cx="276" cy="330" r="5" fill="#c9a227"/>
<text x="276" y="350" text-anchor="middle" font-size="10" font-weight="bold" fill="#c0392b">D6</text>
<path d="M 276 354 C 276 446, 426 456, 466 486" fill="none" stroke="#ffffff" stroke-width="8"/>
<path d="M 276 354 C 276 446, 426 456, 466 486" fill="none" stroke="#c0392b" stroke-width="3"/>
<circle cx="276" cy="354" r="6" fill="#c0392b"/>
<rect x="466" y="468" width="128" height="36" rx="6" fill="#ffffff" stroke="#c0392b" stroke-width="2"/>
<text x="530" y="491" text-anchor="middle" font-size="13" font-weight="bold" fill="#c0392b">Saleae CH0</text>
<text x="606" y="482" text-anchor="start" font-size="12" font-weight="bold" fill="#111">7 列 c 行</text>
<text x="606" y="499" text-anchor="start" font-size="11" fill="#666">D6（P1.11）＝ログの出口</text>
<path d="M 156 190 C 156 512, 306 522, 346 552" fill="none" stroke="#ffffff" stroke-width="8"/>
<path d="M 156 190 C 156 512, 306 522, 346 552" fill="none" stroke="#333333" stroke-width="3"/>
<circle cx="156" cy="190" r="6" fill="#333333"/>
<rect x="346" y="534" width="128" height="36" rx="6" fill="#ffffff" stroke="#333333" stroke-width="2"/>
<text x="410" y="557" text-anchor="middle" font-size="13" font-weight="bold" fill="#333333">Saleae GND</text>
<text x="486" y="548" text-anchor="start" font-size="12" font-weight="bold" fill="#111">2 列 i 行</text>
<text x="486" y="565" text-anchor="start" font-size="11" fill="#666">XIAO の GND と同じ列</text>
<rect x="600" y="682" width="356" height="186" rx="8" fill="#fbfcfd" stroke="#d5dae0" stroke-width="1.5"/>
<text x="620" y="708" text-anchor="start" font-size="13" font-weight="bold" fill="#111">Saleae Logic 2 の設定</text>
<text x="620" y="734" text-anchor="start" font-size="11" fill="#666">アナライザ</text>
<text x="940" y="734" text-anchor="end" font-size="11.5" font-weight="bold" fill="#111">Async Serial</text>
<text x="620" y="758" text-anchor="start" font-size="11" fill="#666">Bit Rate</text>
<text x="940" y="758" text-anchor="end" font-size="11.5" font-weight="bold" fill="#111">1000000 bps</text>
<text x="620" y="782" text-anchor="start" font-size="11" fill="#666">フレーム</text>
<text x="940" y="782" text-anchor="end" font-size="11.5" font-weight="bold" fill="#111">8 bit / 1 stop / parity なし</text>
<text x="620" y="806" text-anchor="start" font-size="11" fill="#666">ビット順</text>
<text x="940" y="806" text-anchor="end" font-size="11.5" font-weight="bold" fill="#111">LSB first</text>
<text x="620" y="830" text-anchor="start" font-size="11" fill="#666">標本化</text>
<text x="940" y="830" text-anchor="end" font-size="11.5" font-weight="bold" fill="#111">24 MS/s（CH0 のみ）</text>
<text x="620" y="856" text-anchor="start" font-size="11" font-weight="bold" fill="#d35400">Automation（MCP）を有効にしておく</text>
<text x="24" y="664" text-anchor="start" font-size="12.5" font-weight="bold" fill="#c0392b">⚠️ 左は電池のまま。USB を挿すと電池側に電流が流れず、同時に電流を測れない。</text>
<text x="24" y="686" text-anchor="start" font-size="12" fill="#666">⚠️ 治具の配線（薄い線）は触らない。テスターも 29 ↔ 27 列に入れたまま。</text>
<text x="24" y="708" text-anchor="start" font-size="12" fill="#666">⚠️ プローブは XIAO のピンそのものではなく、同じ列の空き穴へ挿す（板の内部で繋がっている）。</text>
</svg>